<svg width="30" height="30" viewBox="0 0 30 30" fill="none" xmlns="http://www.w3.org/2000/svg">
<path d="M9.375 22.5C10.4105 22.5 11.25 23.3395 11.25 24.375C11.25 25.4105 10.4105 26.25 9.375 26.25C8.33946 26.25 7.5 25.4105 7.5 24.375C7.5 23.3395 8.33946 22.5 9.375 22.5Z" fill="#9747FF"/>
<path d="M20.625 22.5001C21.6605 22.5001 22.5 23.3395 22.5 24.3751C22.5 25.4106 21.6605 26.2501 20.625 26.2501C19.5895 26.2501 18.75 25.4106 18.75 24.3751C18.75 23.3395 19.5895 22.5001 20.625 22.5001Z" fill="#9747FF"/>
<path opacity="0.5" d="M2.6046 3.439C2.77632 2.95055 3.31151 2.69378 3.79997 2.86552L4.17672 2.99797C4.94738 3.26888 5.60192 3.49898 6.11703 3.75173C6.66782 4.02198 7.14013 4.35491 7.49536 4.87473C7.84783 5.39053 7.99335 5.95643 8.06051 6.57691C8.09058 6.85466 8.10643 7.16208 8.1148 7.5H21.4126C23.5187 7.5 25.4147 7.5 25.9696 8.22135C26.5246 8.94271 26.3076 10.0296 25.8737 12.2034L25.249 15.2344C24.8551 17.1455 24.6582 18.101 23.9685 18.663C23.2789 19.225 22.3032 19.225 20.352 19.225H13.7234C10.2372 19.225 8.49417 19.225 7.41117 18.0827C6.32817 16.9404 6.24912 15.727 6.24912 12.05V8.7979C6.24912 7.87296 6.24785 7.25395 6.1964 6.77868C6.14723 6.3245 6.06011 6.09772 5.94728 5.93261C5.83721 5.77153 5.67012 5.621 5.2911 5.43502C4.88753 5.23701 4.3391 5.04257 3.50458 4.74917L3.17807 4.63437C2.68962 4.46265 2.43286 3.92746 2.6046 3.439Z" fill="#9747FF"/>
<path d="M17.1875 11.25C17.1875 10.7322 16.7678 10.3125 16.25 10.3125C15.7322 10.3125 15.3125 10.7322 15.3125 11.25V12.8125H13.75C13.2322 12.8125 12.8125 13.2322 12.8125 13.75C12.8125 14.2678 13.2322 14.6875 13.75 14.6875H15.3125V16.25C15.3125 16.7677 15.7322 17.1875 16.25 17.1875C16.7678 17.1875 17.1875 16.7677 17.1875 16.25V14.6875H18.75C19.2677 14.6875 19.6875 14.2678 19.6875 13.75C19.6875 13.2322 19.2677 12.8125 18.75 12.8125H17.1875V11.25Z" fill="#9747FF"/>
</svg>
