<svg width="220" height="157" viewBox="0 0 220 157" fill="none" xmlns="http://www.w3.org/2000/svg">
<path d="M0.284091 0.400322H21.1818L38.9091 43.6276H39.7273L57.4545 0.400322H78.3523V70.2185H61.9205V27.3321H61.3409L44.5682 69.7753H34.0682L17.2955 27.0935H16.7159V70.2185H0.284091V0.400322ZM103.98 70.2185H85.8438L109.401 0.400322H131.866L155.423 70.2185H137.287L120.889 17.9912H120.344L103.98 70.2185ZM101.56 42.7412H139.469V55.5594H101.56V42.7412ZM162.94 70.2185V0.400322H191.781C197.009 0.400322 201.52 1.3435 205.315 3.22987C209.134 5.0935 212.077 7.77532 214.145 11.2753C216.213 14.7526 217.247 18.8776 217.247 23.6503C217.247 28.4912 216.19 32.6049 214.077 35.9912C211.963 39.3549 208.963 41.9231 205.077 43.6958C201.19 45.4458 196.588 46.3208 191.27 46.3208H173.031V33.0253H188.134C190.679 33.0253 192.804 32.6958 194.509 32.0367C196.236 31.3549 197.543 30.3321 198.429 28.9685C199.315 27.5821 199.759 25.8094 199.759 23.6503C199.759 21.4912 199.315 19.7071 198.429 18.2981C197.543 16.8662 196.236 15.798 194.509 15.0935C192.781 14.3662 190.656 14.0026 188.134 14.0026H179.815V70.2185H162.94ZM202.247 38.3094L219.634 70.2185H201.224L184.179 38.3094H202.247ZM0.284091 156.219V86.4003H17.1591V115.923H18.0795L41.1591 86.4003H61.0341L36.2841 117.559L61.4773 156.219H41.2955L23.9091 128.775L17.1591 137.298V156.219H0.284091ZM67.6903 156.219V86.4003H116.372V100.105H84.5653V114.423H113.884V128.162H84.5653V142.514H116.372V156.219H67.6903ZM124.656 100.105V86.4003H183.668V100.105H162.497V156.219H145.861V100.105H124.656Z" fill="url(#paint0_linear_16_534)"/>
<defs>
<linearGradient id="paint0_linear_16_534" x1="108.5" y1="-7.78149" x2="108.5" y2="164.219" gradientUnits="userSpaceOnUse">
<stop stop-color="#6C34A4"/>
<stop offset="1" stop-color="#8008F9"/>
</linearGradient>
</defs>
</svg>
