<svg width="118" height="17" viewBox="0 0 118 17" fill="none" xmlns="http://www.w3.org/2000/svg">
<g clip-path="url(#clip0_45_1378)">
<path d="M5.72073 4.38024C6.51238 2.96008 6.90819 2.25 7.5 2.25C8.09181 2.25 8.48763 2.96008 9.27925 4.38023L9.48406 4.74764C9.70906 5.15121 9.8215 5.35299 9.99694 5.48613C10.1723 5.61927 10.3907 5.66869 10.8276 5.76753L11.2253 5.85752C12.7626 6.20535 13.5313 6.37926 13.7141 6.96733C13.897 7.55538 13.373 8.16819 12.3249 9.39369L12.0538 9.71075C11.756 10.059 11.6071 10.2331 11.5401 10.4486C11.4731 10.664 11.4956 10.8963 11.5406 11.361L11.5816 11.784C11.7401 13.4191 11.8193 14.2367 11.3406 14.6001C10.8618 14.9636 10.1421 14.6322 8.70269 13.9695L8.33031 13.798C7.92131 13.6097 7.71681 13.5155 7.5 13.5155C7.28319 13.5155 7.07869 13.6097 6.66969 13.798L6.29731 13.9695C4.85793 14.6322 4.13824 14.9636 3.65947 14.6001C3.1807 14.2367 3.25993 13.4191 3.41838 11.784L3.45936 11.361C3.50439 10.8963 3.52691 10.664 3.45991 10.4486C3.39293 10.2331 3.24402 10.059 2.9462 9.71075L2.67506 9.39369C1.62703 8.16819 1.10301 7.55538 1.28589 6.96733C1.46876 6.37926 2.23741 6.20535 3.77471 5.85752L4.17243 5.76753C4.60928 5.66869 4.82771 5.61927 5.00309 5.48613C5.17847 5.35299 5.29096 5.15121 5.51592 4.74764L5.72073 4.38024Z" fill="#FFA800" stroke="#FFA800" stroke-width="2"/>
</g>
<g clip-path="url(#clip1_45_1378)">
<path d="M24.7207 4.38024C25.5124 2.96008 25.9082 2.25 26.5 2.25C27.0918 2.25 27.4876 2.96008 28.2793 4.38023L28.4841 4.74764C28.7091 5.15121 28.8215 5.35299 28.9969 5.48613C29.1723 5.61927 29.3907 5.66869 29.8276 5.76753L30.2253 5.85752C31.7626 6.20535 32.5313 6.37926 32.7141 6.96733C32.897 7.55538 32.373 8.16819 31.3249 9.39369L31.0538 9.71075C30.756 10.059 30.6071 10.2331 30.5401 10.4486C30.4731 10.664 30.4956 10.8963 30.5406 11.361L30.5816 11.784C30.7401 13.4191 30.8193 14.2367 30.3406 14.6001C29.8618 14.9636 29.1421 14.6322 27.7027 13.9695L27.3303 13.798C26.9213 13.6097 26.7168 13.5155 26.5 13.5155C26.2832 13.5155 26.0787 13.6097 25.6697 13.798L25.2973 13.9695C23.8579 14.6322 23.1382 14.9636 22.6595 14.6001C22.1807 14.2367 22.2599 13.4191 22.4184 11.784L22.4594 11.361C22.5044 10.8963 22.5269 10.664 22.4599 10.4486C22.3929 10.2331 22.244 10.059 21.9462 9.71075L21.6751 9.39369C20.627 8.16819 20.103 7.55538 20.2859 6.96733C20.4688 6.37926 21.2374 6.20535 22.7747 5.85752L23.1724 5.76753C23.6093 5.66869 23.8277 5.61927 24.0031 5.48613C24.1785 5.35299 24.291 5.15121 24.5159 4.74764L24.7207 4.38024Z" fill="#FFA800" stroke="#FFA800" stroke-width="2"/>
</g>
<g clip-path="url(#clip2_45_1378)">
<path d="M43.7207 4.38024C44.5124 2.96008 44.9082 2.25 45.5 2.25C46.0918 2.25 46.4876 2.96008 47.2793 4.38023L47.4841 4.74764C47.7091 5.15121 47.8215 5.35299 47.9969 5.48613C48.1723 5.61927 48.3907 5.66869 48.8276 5.76753L49.2253 5.85752C50.7626 6.20535 51.5313 6.37926 51.7141 6.96733C51.897 7.55538 51.373 8.16819 50.3249 9.39369L50.0538 9.71075C49.756 10.059 49.6071 10.2331 49.5401 10.4486C49.4731 10.664 49.4956 10.8963 49.5406 11.361L49.5816 11.784C49.7401 13.4191 49.8193 14.2367 49.3406 14.6001C48.8618 14.9636 48.1421 14.6322 46.7027 13.9695L46.3303 13.798C45.9213 13.6097 45.7168 13.5155 45.5 13.5155C45.2832 13.5155 45.0787 13.6097 44.6697 13.798L44.2973 13.9695C42.8579 14.6322 42.1382 14.9636 41.6595 14.6001C41.1807 14.2367 41.2599 13.4191 41.4184 11.784L41.4594 11.361C41.5044 10.8963 41.5269 10.664 41.4599 10.4486C41.3929 10.2331 41.244 10.059 40.9462 9.71075L40.6751 9.39369C39.627 8.16819 39.103 7.55538 39.2859 6.96733C39.4688 6.37926 40.2374 6.20535 41.7747 5.85752L42.1724 5.76753C42.6093 5.66869 42.8277 5.61927 43.0031 5.48613C43.1785 5.35299 43.291 5.15121 43.5159 4.74764L43.7207 4.38024Z" fill="#FFA800" stroke="#FFA800" stroke-width="2"/>
</g>
<g clip-path="url(#clip3_45_1378)">
<path d="M62.7207 4.38024C63.5124 2.96008 63.9082 2.25 64.5 2.25C65.0918 2.25 65.4876 2.96008 66.2793 4.38023L66.4841 4.74764C66.7091 5.15121 66.8215 5.35299 66.9969 5.48613C67.1723 5.61927 67.3907 5.66869 67.8276 5.76753L68.2253 5.85752C69.7626 6.20535 70.5313 6.37926 70.7141 6.96733C70.897 7.55538 70.373 8.16819 69.3249 9.39369L69.0538 9.71075C68.756 10.059 68.6071 10.2331 68.5401 10.4486C68.4731 10.664 68.4956 10.8963 68.5406 11.361L68.5816 11.784C68.7401 13.4191 68.8193 14.2367 68.3406 14.6001C67.8618 14.9636 67.1421 14.6322 65.7027 13.9695L65.3303 13.798C64.9213 13.6097 64.7168 13.5155 64.5 13.5155C64.2832 13.5155 64.0787 13.6097 63.6697 13.798L63.2973 13.9695C61.8579 14.6322 61.1382 14.9636 60.6595 14.6001C60.1807 14.2367 60.2599 13.4191 60.4184 11.784L60.4594 11.361C60.5044 10.8963 60.5269 10.664 60.4599 10.4486C60.3929 10.2331 60.244 10.059 59.9462 9.71075L59.6751 9.39369C58.627 8.16819 58.103 7.55538 58.2859 6.96733C58.4688 6.37926 59.2374 6.20535 60.7747 5.85752L61.1724 5.76753C61.6093 5.66869 61.8277 5.61927 62.0031 5.48613C62.1785 5.35299 62.291 5.15121 62.5159 4.74764L62.7207 4.38024Z" fill="#FFA800" stroke="#FFA800" stroke-width="2"/>
</g>
<g clip-path="url(#clip4_45_1378)">
<path d="M81.7207 4.38024C82.5124 2.96008 82.9082 2.25 83.5 2.25C84.0918 2.25 84.4876 2.96008 85.2793 4.38023L85.4841 4.74764C85.7091 5.15121 85.8215 5.35299 85.9969 5.48613C86.1723 5.61927 86.3907 5.66869 86.8276 5.76753L87.2253 5.85752C88.7626 6.20535 89.5313 6.37926 89.7141 6.96733C89.897 7.55538 89.373 8.16819 88.3249 9.39369L88.0538 9.71075C87.756 10.059 87.6071 10.2331 87.5401 10.4486C87.4731 10.664 87.4956 10.8963 87.5406 11.361L87.5816 11.784C87.7401 13.4191 87.8193 14.2367 87.3406 14.6001C86.8618 14.9636 86.1421 14.6322 84.7027 13.9695L84.3303 13.798C83.9213 13.6097 83.7168 13.5155 83.5 13.5155C83.2832 13.5155 83.0787 13.6097 82.6697 13.798L82.2973 13.9695C80.8579 14.6322 80.1382 14.9636 79.6595 14.6001C79.1807 14.2367 79.2599 13.4191 79.4184 11.784L79.4594 11.361C79.5044 10.8963 79.5269 10.664 79.4599 10.4486C79.3929 10.2331 79.244 10.059 78.9462 9.71075L78.6751 9.39369C77.627 8.16819 77.103 7.55538 77.2859 6.96733C77.4688 6.37926 78.2374 6.20535 79.7747 5.85752L80.1724 5.76753C80.6093 5.66869 80.8277 5.61927 81.0031 5.48613C81.1785 5.35299 81.291 5.15121 81.5159 4.74764L81.7207 4.38024Z" stroke="#FFA800" stroke-width="2"/>
</g>
<path d="M95.6712 12.2102V10.5149L99.9219 3.81818H101.384V6.16477H100.518L97.8388 10.4055V10.4851H103.879V12.2102H95.6712ZM100.558 14V11.6932L100.598 10.9425V3.81818H102.616V14H100.558ZM107.444 12.608L107.389 13.1548C107.346 13.5923 107.263 14.0282 107.141 14.4624C107.021 14.8999 106.895 15.2959 106.763 15.6506C106.634 16.0052 106.529 16.2836 106.45 16.4858H105.077C105.127 16.2902 105.195 16.0168 105.281 15.6655C105.367 15.3175 105.449 14.9264 105.525 14.4922C105.601 14.058 105.649 13.6155 105.669 13.1648L105.694 12.608H107.444ZM112.942 14.2237C112.087 14.2204 111.352 14.0099 110.735 13.5923C110.122 13.1747 109.65 12.5698 109.318 11.7777C108.99 10.9856 108.828 10.0327 108.831 8.91903C108.831 7.80871 108.995 6.86245 109.323 6.08026C109.655 5.29806 110.127 4.70312 110.74 4.29545C111.357 3.88447 112.091 3.67898 112.942 3.67898C113.794 3.67898 114.527 3.88447 115.14 4.29545C115.756 4.70644 116.23 5.30303 116.562 6.08523C116.893 6.86411 117.057 7.80871 117.054 8.91903C117.054 10.036 116.888 10.9905 116.557 11.7827C116.229 12.5748 115.758 13.1797 115.145 13.5973C114.532 14.0149 113.798 14.2237 112.942 14.2237ZM112.942 12.4389C113.526 12.4389 113.991 12.1456 114.339 11.5589C114.688 10.9723 114.86 10.0923 114.857 8.91903C114.857 8.14678 114.777 7.50379 114.618 6.99006C114.462 6.47633 114.24 6.0902 113.952 5.83168C113.667 5.57315 113.33 5.44389 112.942 5.44389C112.362 5.44389 111.898 5.7339 111.55 6.31392C111.202 6.89394 111.027 7.76231 111.023 8.91903C111.023 9.70123 111.101 10.3542 111.257 10.8778C111.416 11.3982 111.64 11.7893 111.928 12.0511C112.217 12.3097 112.555 12.4389 112.942 12.4389Z" fill="#FFA800"/>
<defs>
<clipPath id="clip0_45_1378">
<rect width="15" height="15" fill="white" transform="translate(0 1)"/>
</clipPath>
<clipPath id="clip1_45_1378">
<rect width="15" height="15" fill="white" transform="translate(19 1)"/>
</clipPath>
<clipPath id="clip2_45_1378">
<rect width="15" height="15" fill="white" transform="translate(38 1)"/>
</clipPath>
<clipPath id="clip3_45_1378">
<rect width="15" height="15" fill="white" transform="translate(57 1)"/>
</clipPath>
<clipPath id="clip4_45_1378">
<rect width="15" height="15" fill="white" transform="translate(76 1)"/>
</clipPath>
</defs>
</svg>
