<svg width="45" height="45" viewBox="0 0 45 45" fill="none" xmlns="http://www.w3.org/2000/svg">
<path d="M14.0625 33.75C15.6158 33.75 16.875 35.0092 16.875 36.5625C16.875 38.1158 15.6158 39.375 14.0625 39.375C12.5092 39.375 11.25 38.1158 11.25 36.5625C11.25 35.0092 12.5092 33.75 14.0625 33.75Z" stroke="black" stroke-width="3.75"/>
<path d="M30.9375 33.7502C32.4908 33.7502 33.75 35.0092 33.75 36.5627C33.75 38.1159 32.4908 39.3752 30.9375 39.3752C29.3842 39.3752 28.125 38.1159 28.125 36.5627C28.125 35.0092 29.3842 33.7502 30.9375 33.7502Z" stroke="black" stroke-width="3.75"/>
<path d="M4.21644 4.29837C3.48374 4.04077 2.68096 4.42591 2.42337 5.15859C2.16577 5.89128 2.55091 6.69406 3.28359 6.95165L4.21644 4.29837ZM38.7334 18.5302L40.1106 18.8141L40.1124 18.8055L38.7334 18.5302ZM10.7027 18.3V13.1969H7.89016V18.3H10.7027ZM4.70621 4.47056L4.21644 4.29837L3.28359 6.95165L3.77336 7.12385L4.70621 4.47056ZM20.5078 30.4688H30.4508V27.6563H20.5078V30.4688ZM10.7027 13.1969C10.7027 11.871 10.7046 10.7646 10.6072 9.86546C10.5065 8.93474 10.2882 8.08589 9.75952 7.31219L7.43741 8.89901C7.60664 9.14667 7.73733 9.48684 7.81107 10.1681C7.88825 10.881 7.89016 11.8095 7.89016 13.1969H10.7027ZM3.77336 7.12385C5.02512 7.56395 5.84778 7.85561 6.45312 8.15262C7.02166 8.43159 7.27229 8.65739 7.43741 8.89901L9.75952 7.31219C9.22668 6.53246 8.51821 6.03307 7.69203 5.62769C6.90262 5.24036 5.89492 4.88849 4.70621 4.47056L3.77336 7.12385ZM7.89016 18.3C7.89016 21.0234 7.91572 22.9873 8.17269 24.4877C8.44704 26.0895 8.9948 27.2365 10.019 28.3166L12.06 26.3816C11.4597 25.7485 11.1359 25.1284 10.9448 24.013C10.7364 22.7959 10.7027 21.0919 10.7027 18.3H7.89016ZM20.5078 27.6563C17.8513 27.6563 16.0081 27.6529 14.6193 27.456C13.279 27.2659 12.571 26.9205 12.06 26.3816L10.019 28.3166C11.1325 29.4911 12.544 30.0024 14.2244 30.2406C15.8564 30.4721 17.935 30.4688 20.5078 30.4688V27.6563ZM9.29641 12.8813H32.0415V10.0688H9.29641V12.8813ZM37.356 18.2463L36.4191 22.7927L39.1736 23.3605L40.1106 18.8141L37.356 18.2463ZM32.0415 12.8813C33.6473 12.8813 35.0604 12.8831 36.1757 13.0078C36.7299 13.0698 37.1447 13.1558 37.4361 13.2582C37.7387 13.3646 37.7869 13.4461 37.7627 13.4145L39.9919 11.6996C39.5513 11.1269 38.9318 10.8027 38.3685 10.6048C37.7938 10.4028 37.1439 10.286 36.4883 10.2127C35.1836 10.0669 33.5951 10.0688 32.0415 10.0688V12.8813ZM40.1124 18.8055C40.4297 17.2156 40.6991 15.8817 40.7651 14.8132C40.8328 13.7141 40.7078 12.6303 39.9919 11.6996L37.7627 13.4145C37.8789 13.5658 38.0074 13.8382 37.9579 14.64C37.9065 15.4723 37.6879 16.584 37.3543 18.2549L40.1124 18.8055ZM30.4508 30.4688C31.8789 30.4688 33.0774 30.4712 34.0436 30.3529C35.0481 30.2301 35.9642 29.9614 36.7639 29.3096L34.9871 27.1294C34.7524 27.3206 34.4196 27.4734 33.702 27.5614C32.946 27.6538 31.9494 27.6563 30.4508 27.6563V30.4688ZM36.4191 22.7927C36.1164 24.2605 35.9128 25.2362 35.6696 25.9579C35.4388 26.6428 35.2219 26.9381 34.9871 27.1294L36.7639 29.3096C37.5636 28.6579 38.0117 27.8149 38.3349 26.856C38.6458 25.9335 38.8853 24.7592 39.1736 23.3605L36.4191 22.7927Z" fill="black"/>
<path d="M17.8125 16.875L18.8029 22.7211" stroke="black" stroke-width="3.75" stroke-linecap="round"/>
<path d="M29.1156 16.875L28.1252 22.7211" stroke="black" stroke-width="3.75" stroke-linecap="round"/>
</svg>
